<svg width="310" height="304" viewBox="0 0 310 304" fill="none" xmlns="http://www.w3.org/2000/svg">
<g clip-path="url(#clip0_1_1142)">
<circle cx="254" cy="265" r="39" fill="#4f46e5"/>
<path fill-rule="evenodd" clip-rule="evenodd" d="M154 59C181.747 59 207.365 68.003 228.024 83.2133L205.176 124.966C194.952 118.647 182.902 115 170 115C132.997 115 103 144.997 103 182C103 219.003 132.997 249 170 249C181.459 249 192.247 246.123 201.68 241.052L224.376 282.373C204.382 296.012 180.135 304 154 304C129.851 304 107.314 297.18 88.2555 285.384C91.899 279.452 94 272.472 94 265C94 243.461 76.5391 226 55 226C49.5744 226 44.4076 227.108 39.7134 229.11C33.4583 214.474 30 198.386 30 181.5C30 113.845 85.5167 59 154 59Z" fill="#4f46e5"/>
<path d="M40.5118 66.6638L37.5087 69.8843C36.4048 69.2109 35.2802 68.7854 34.135 68.6076C32.9978 68.4212 31.8763 68.4436 30.7705 68.6748C29.6641 68.8894 28.6102 69.2905 27.609 69.8782C26.6077 70.4659 25.6954 71.2013 24.872 72.0843C23.3704 73.6946 22.417 75.5327 22.0118 77.5988C21.6146 79.6562 21.8489 81.8088 22.7147 84.0567C23.5885 86.2958 25.1768 88.4891 27.4796 90.6365C29.7824 92.7839 32.0811 94.2153 34.3758 94.9309C36.6785 95.6377 38.8423 95.7213 40.867 95.1816C42.8997 94.6332 44.6669 93.5539 46.1685 91.9437C46.9919 91.0606 47.6619 90.0992 48.1783 89.0594C48.6948 88.0196 49.0257 86.9444 49.1712 85.8338C49.3161 84.7065 49.2559 83.5821 48.9906 82.4607C48.7247 81.3226 48.2218 80.2304 47.4817 79.1842L50.4848 75.9638C51.6179 77.4736 52.4226 79.0494 52.8986 80.6911C53.3747 82.3327 53.5454 83.9809 53.4105 85.6355C53.267 87.2821 52.837 88.88 52.1206 90.4293C51.4123 91.9699 50.4325 93.4112 49.1812 94.753C47.0661 97.0212 44.631 98.5217 41.876 99.2544C39.121 99.9871 36.2498 99.9073 33.2621 99.015C30.2745 98.1227 27.3783 96.3687 24.5734 93.7531C21.7685 91.1375 19.8167 88.3706 18.7182 85.4525C17.6196 82.5344 17.3397 79.6757 17.8785 76.8763C18.4172 74.0769 19.7442 71.5431 21.8593 69.275C23.1106 67.9331 24.48 66.8552 25.9674 66.0411C27.463 65.2183 29.0314 64.682 30.6726 64.432C32.3051 64.174 33.9568 64.2252 35.6277 64.5856C37.2899 64.938 38.9179 65.6307 40.5118 66.6638Z" fill="#4f46e5"/>
<path d="M87.1073 66.0441C84.9253 67.1848 82.7394 67.6664 80.5496 67.4889C78.3702 67.3059 76.3308 66.5221 74.4316 65.1374C72.5427 63.7473 70.9457 61.8039 69.6405 59.3073C68.3243 56.7897 67.6317 54.3534 67.5627 51.9986C67.5042 49.6383 68.0217 47.5111 69.1152 45.617C70.2193 43.7175 71.8622 42.1974 74.0442 41.0567C76.2261 39.916 78.4068 39.4372 80.5862 39.6202C82.776 39.7977 84.8181 40.5868 86.7124 41.9874C88.6172 43.3825 90.2277 45.3389 91.5438 47.8565C92.8491 50.3532 93.5282 52.7764 93.5812 55.1262C93.6448 57.4706 93.1245 59.5925 92.0205 61.492C90.927 63.3861 89.2892 64.9035 87.1073 66.0441ZM85.3633 62.7083C87.0208 61.8418 88.1624 60.704 88.7882 59.2949C89.4139 57.8859 89.6219 56.3546 89.412 54.7012C89.2021 53.0478 88.6749 51.4134 87.8304 49.7979C86.9858 48.1824 85.9418 46.8114 84.6984 45.685C83.455 44.5585 82.0735 43.8449 80.5538 43.5441C79.0341 43.2433 77.4456 43.5261 75.7881 44.3926C74.1307 45.2591 72.9918 46.4021 72.3715 47.8217C71.7512 49.2412 71.5488 50.783 71.7641 52.4469C71.9795 54.1108 72.5095 55.7505 73.354 57.3659C74.1986 58.9814 75.2398 60.3471 76.4777 61.4631C77.7156 62.5791 79.0917 63.2822 80.6059 63.5725C82.1201 63.8629 83.7059 63.5748 85.3633 62.7083Z" fill="#4f46e5"/>
<path d="M123.692 35.3947L126.032 51.6332L121.885 52.2309L117.995 25.237L122.002 24.6596L122.609 28.8774L122.961 28.8267C123.396 27.3648 124.198 26.125 125.367 25.1075C126.534 24.0782 128.137 23.4167 130.176 23.1229C132.003 22.8595 133.657 23.004 135.136 23.5563C136.613 24.0969 137.841 25.068 138.82 26.4696C139.798 27.8595 140.452 29.7027 140.783 31.999L143.255 49.1514L139.107 49.7491L136.676 32.8779C136.371 30.7573 135.582 29.1846 134.31 28.16C133.037 27.1237 131.439 26.744 129.518 27.0208C128.194 27.2116 127.052 27.6692 126.092 28.3935C125.143 29.1162 124.45 30.0712 124.011 31.2586C123.572 32.4461 123.466 33.8248 123.692 35.3947Z" fill="#4f46e5"/>
<path d="M192.651 26.3545L191.961 29.838L178.096 27.0927L178.786 23.6092L192.651 26.3545ZM184.096 17.9997L188.207 18.8136L183.158 44.3129C182.928 45.474 182.924 46.3783 183.146 47.0255C183.381 47.6635 183.747 48.134 184.242 48.4372C184.751 48.731 185.307 48.9377 185.911 49.0573C186.364 49.147 186.74 49.1973 187.039 49.2083C187.341 49.2078 187.583 49.2073 187.764 49.2069L187.868 53.065C187.569 53.1143 187.159 53.1418 186.639 53.1474C186.117 53.1647 185.473 53.0975 184.706 52.9457C183.545 52.7158 182.457 52.2408 181.441 51.5208C180.437 50.8031 179.67 49.8609 179.141 48.6942C178.623 47.5298 178.518 46.1696 178.826 44.6137L184.096 17.9997Z" fill="#4f46e5"/>
<path d="M223.853 68.3616C222.365 67.4819 221.181 66.4033 220.3 65.1259C219.425 63.8382 218.947 62.4486 218.867 60.957C218.792 59.4552 219.207 57.9402 220.111 56.4119C220.906 55.067 221.816 54.1334 222.84 53.6113C223.87 53.079 224.969 52.8355 226.139 52.8808C227.309 52.9262 228.498 53.148 229.706 53.5464C230.931 53.9406 232.13 54.3887 233.305 54.8908C234.84 55.551 236.077 56.0974 237.018 56.5299C237.975 56.9582 238.726 57.1758 239.273 57.1825C239.829 57.1952 240.279 56.9111 240.622 56.3304L240.695 56.2081C241.586 54.7002 241.867 53.2844 241.535 51.9609C241.214 50.6434 240.224 49.4935 238.563 48.5114C236.841 47.493 235.268 47.0716 233.844 47.2471C232.42 47.4227 231.256 47.8208 230.353 48.4417L227.652 45.1944C229.107 44.1296 230.579 43.501 232.068 43.3089C233.573 43.1126 235.025 43.215 236.425 43.6162C237.84 44.0132 239.139 44.5612 240.321 45.2602C241.075 45.7061 241.886 46.3099 242.756 47.0718C243.642 47.8295 244.381 48.7546 244.972 49.8471C245.574 50.9456 245.852 52.2309 245.807 53.703C245.761 55.1751 245.187 56.8434 244.084 58.708L234.938 74.1744L231.331 72.0414L233.211 68.8625L233.027 68.754C232.482 69.1189 231.752 69.4229 230.838 69.6662C229.924 69.9096 228.872 69.9548 227.684 69.802C226.495 69.6492 225.218 69.169 223.853 68.3616ZM226.319 65.447C227.746 66.2906 229.114 66.7214 230.423 66.7395C231.743 66.7636 232.915 66.48 233.938 65.8889C234.972 65.3037 235.778 64.5221 236.356 63.544L238.308 60.2428C238.047 60.3359 237.612 60.3051 237.001 60.1507C236.408 59.992 235.741 59.7699 235.003 59.4843C234.28 59.1945 233.579 58.9036 232.899 58.6115C232.235 58.3153 231.695 58.0781 231.278 57.9001C230.268 57.468 229.274 57.1485 228.296 56.9415C227.335 56.7304 226.445 56.7472 225.626 56.992C224.824 57.2326 224.151 57.8114 223.609 58.7283C222.868 59.9815 222.771 61.2033 223.319 62.3935C223.882 63.5795 224.883 64.5974 226.319 65.447Z" fill="#4f46e5"/>
<path d="M285.748 94.2218L282.512 92.0231C282.841 91.4384 283.083 90.7791 283.24 90.045C283.413 89.3124 283.399 88.5213 283.196 87.6717C282.993 86.8222 282.499 85.9304 281.716 84.9964C280.643 83.7179 279.454 82.8997 278.15 82.5419C276.862 82.1856 275.769 82.384 274.871 83.1373C274.073 83.8069 273.686 84.6258 273.711 85.5942C273.735 86.5626 274.111 87.7927 274.837 89.2847L276.678 93.025C277.792 95.2734 278.266 97.2473 278.101 98.9469C277.944 100.639 277.136 102.097 275.676 103.322C274.479 104.327 273.12 104.88 271.599 104.982C270.085 105.093 268.543 104.765 266.971 103.997C265.4 103.23 263.933 102.034 262.571 100.411C260.783 98.2804 259.766 96.1287 259.519 93.9562C259.272 91.7836 259.882 89.7658 261.347 87.9027L264.665 90.3104C263.784 91.544 263.401 92.8002 263.516 94.079C263.639 95.3669 264.252 96.6682 265.355 97.983C266.61 99.4792 267.925 100.401 269.297 100.748C270.687 101.096 271.83 100.894 272.728 100.14C273.453 99.5318 273.848 98.7681 273.912 97.8494C273.984 96.9231 273.702 95.8313 273.064 94.574L270.958 90.4072C269.806 88.1135 269.329 86.1183 269.528 84.4217C269.744 82.7265 270.573 81.274 272.014 80.0643C273.193 79.0751 274.514 78.5311 275.976 78.4322C277.446 78.3423 278.922 78.6563 280.405 79.3742C281.896 80.1012 283.258 81.1992 284.49 82.6681C286.225 84.7356 287.134 86.7392 287.216 88.6788C287.306 90.6276 286.817 92.4753 285.748 94.2218Z" fill="#4f46e5"/>
</g>
<defs>
<clipPath id="clip0_1_1142">
<rect width="309.544" height="304" fill="white"/>
</clipPath>
</defs>
</svg>
